<?xml version="1.0" standalone="no"?>
<!DOCTYPE svg PUBLIC "-//W3C//DTD SVG 20010904//EN"
 "http://www.w3.org/TR/2001/REC-SVG-20010904/DTD/svg10.dtd">
<svg version="1.0" xmlns="http://www.w3.org/2000/svg"
 width="1323.000000pt" height="1323.000000pt" viewBox="0 0 1323.000000 1323.000000"
 preserveAspectRatio="xMidYMid meet">
<metadata>
Created by potrace 1.14, written by Peter Selinger 2001-2017
</metadata>
<g transform="translate(0.000000,1323.000000) scale(0.100000,-0.100000)"
fill="#000000" stroke="none">
<path d="M6485 13170 c-27 -4 -68 -11 -90 -14 -22 -4 -65 -13 -95 -22 -30 -8
-66 -17 -79 -20 -49 -10 -209 -76 -291 -121 -399 -214 -690 -583 -799 -1009
-22 -85 -25 -101 -41 -213 -10 -73 -7 -348 5 -426 112 -715 691 -1272 1405
-1352 84 -9 275 -9 370 1 102 11 291 59 397 102 506 203 889 667 982 1189 21
118 23 141 25 260 6 281 -47 512 -173 763 -191 379 -545 677 -956 803 -38 11
-78 23 -90 25 -11 2 -31 6 -45 10 -14 3 -38 7 -55 10 -16 3 -41 8 -55 11 -42
9 -362 11 -415 3z"/>
<path d="M8539 11241 c-1 -6 -2 -14 -3 -18 -1 -5 -5 -26 -10 -48 -23 -118 -84
-290 -150 -425 l-22 -45 260 -325 c144 -179 269 -334 278 -345 9 -11 48 -59
85 -106 55 -69 153 -192 240 -299 7 -8 56 -69 109 -135 52 -66 103 -129 112
-140 79 -96 211 -265 207 -265 -3 0 -53 33 -112 73 -60 41 -227 154 -373 252
-146 98 -319 215 -385 260 -66 45 -272 184 -457 308 l-337 227 -48 -42 c-27
-24 -61 -53 -76 -64 -15 -12 -27 -29 -27 -38 0 -16 70 -318 90 -386 10 -35 68
-278 76 -315 2 -11 22 -94 44 -185 42 -170 120 -493 125 -520 2 -8 17 -69 33
-135 16 -66 33 -133 37 -150 4 -19 -17 7 -62 75 -37 58 -76 116 -86 130 -10
14 -50 75 -89 135 -40 61 -75 112 -79 115 -3 3 -8 10 -10 15 -3 7 -611 926
-623 942 0 1 -39 -10 -85 -23 -46 -13 -98 -27 -115 -30 -17 -3 -31 -6 -32 -7
-3 -3 -13 -102 -19 -172 -3 -33 -7 -80 -10 -105 -2 -25 -7 -79 -10 -120 -3
-41 -8 -95 -10 -120 -5 -47 -10 -94 -21 -220 -3 -41 -8 -88 -9 -105 -2 -16 -6
-66 -10 -110 -3 -44 -8 -96 -10 -115 -2 -19 -6 -73 -10 -120 -4 -47 -8 -96
-10 -110 -2 -14 -7 -61 -10 -105 -4 -44 -8 -96 -10 -115 -2 -19 -7 -66 -10
-105 -3 -38 -8 -90 -10 -115 -2 -25 -6 -76 -10 -115 -3 -38 -8 -88 -10 -110
-2 -22 -7 -76 -10 -120 -3 -44 -8 -96 -11 -116 -2 -20 -7 -67 -9 -105 -3 -38
-7 -89 -10 -114 -2 -25 -7 -76 -10 -115 -3 -38 -8 -86 -10 -105 -2 -19 -7 -73
-11 -120 -4 -47 -8 -98 -10 -115 -1 -16 -6 -68 -9 -115 -4 -47 -9 -93 -10
-102 -2 -9 -7 -60 -10 -114 -8 -109 -23 -168 -25 -99 -1 22 -3 51 -5 65 -2 14
-6 57 -10 95 -3 39 -7 86 -9 105 -2 19 -7 71 -11 114 -4 43 -8 86 -10 95 -1 9
-6 57 -9 106 -4 50 -9 97 -11 105 -2 8 -6 57 -10 107 -3 51 -8 103 -10 115 -2
13 -6 59 -10 103 -4 44 -9 98 -11 120 -2 22 -6 65 -8 95 -3 30 -8 82 -11 115
-11 116 -21 215 -30 318 -3 31 -7 81 -10 110 -3 28 -7 77 -10 108 -2 31 -7 72
-9 90 -3 19 -8 70 -11 114 -4 44 -8 94 -10 110 -2 17 -7 66 -10 109 -4 44 -8
93 -10 110 -2 17 -6 63 -10 101 -7 80 -14 150 -20 215 -2 25 -7 72 -10 105 -3
33 -8 80 -10 105 -3 25 -7 74 -10 110 -20 255 -12 234 -98 248 -40 7 -84 15
-98 18 -25 5 -34 -5 -144 -168 -65 -95 -137 -200 -160 -233 -42 -61 -132 -192
-310 -455 -55 -80 -125 -183 -158 -230 -32 -47 -97 -142 -144 -213 -48 -70
-88 -125 -90 -123 -2 2 28 129 67 282 39 154 73 286 75 294 6 28 206 815 241
949 19 74 31 138 27 142 -4 4 -46 35 -92 69 l-83 61 -297 -198 c-163 -110
-543 -365 -845 -568 -302 -202 -545 -362 -541 -355 5 7 55 70 113 139 58 69
122 146 143 171 20 25 64 77 96 116 81 98 103 125 145 175 39 48 579 698 633
764 18 22 61 73 94 113 34 41 61 78 61 83 0 5 -17 35 -37 66 -74 117 -170 345
-209 498 -4 17 -8 32 -9 35 -1 3 -5 24 -9 48 -4 23 -11 42 -14 42 -4 0 -550
-543 -1213 -1207 -918 -918 -1206 -1213 -1203 -1228 1 -11 6 -47 9 -80 3 -33
8 -67 10 -75 4 -15 10 -79 20 -215 4 -38 8 -90 10 -115 22 -238 22 -942 0
-1200 -1 -19 -6 -73 -9 -120 -4 -47 -9 -98 -11 -115 -2 -16 -7 -57 -10 -90 -3
-33 -7 -71 -10 -85 -2 -14 -7 -52 -10 -85 -4 -33 -13 -97 -21 -143 -8 -45 -16
-97 -19 -115 -8 -63 -16 -112 -21 -129 -5 -17 -11 -44 -19 -91 -41 -223 -148
-617 -239 -883 -93 -271 -193 -506 -327 -772 l-88 -172 27 -25 c15 -14 29 -25
32 -24 3 0 31 32 62 72 32 40 70 86 85 103 15 17 55 62 88 100 61 70 388 401
460 465 470 414 982 737 1480 934 66 26 129 51 140 55 155 61 459 146 695 194
129 25 159 31 245 41 28 3 61 8 75 10 34 7 146 18 300 30 25 2 158 5 295 5
220 1 314 -2 445 -15 273 -27 829 -27 971 0 10 2 46 6 80 10 35 4 66 8 69 10
3 1 28 6 55 9 28 4 57 9 65 11 8 2 28 6 44 9 16 3 52 10 80 16 28 6 60 12 71
14 60 12 277 73 400 113 471 154 911 372 1381 683 126 84 321 223 394 282 179
143 262 209 286 230 39 34 213 187 266 235 24 21 151 146 283 278 218 218 306
311 422 445 21 25 49 57 62 70 12 14 26 32 30 40 6 11 -316 339 -1251 1274
-692 692 -1259 1253 -1259 1247z"/>
<path d="M12551 10707 c-58 -153 -334 -684 -445 -857 -13 -19 -49 -78 -81
-130 -153 -248 -367 -553 -580 -824 -67 -86 -322 -396 -334 -406 -3 -3 -37
-41 -76 -85 -191 -218 -515 -541 -780 -776 -27 -24 -55 -48 -61 -54 -134 -120
-382 -316 -570 -451 -461 -331 -933 -590 -1399 -769 -250 -96 -649 -208 -855
-240 -19 -3 -57 -10 -85 -15 -64 -12 -106 -18 -180 -26 -33 -3 -71 -8 -85 -10
-162 -25 -651 -24 -890 1 -270 29 -735 26 -991 -6 -46 -6 -101 -12 -123 -14
-21 -3 -46 -6 -55 -9 -9 -3 -38 -7 -66 -11 -27 -3 -90 -15 -140 -25 -49 -11
-101 -21 -115 -24 -14 -3 -68 -16 -120 -30 -584 -153 -1095 -401 -1600 -777
-58 -43 -116 -86 -129 -96 -13 -10 -29 -23 -35 -28 -6 -6 -38 -33 -71 -60
-236 -197 -547 -512 -730 -740 -22 -28 -43 -52 -46 -55 -3 -3 -47 -59 -98
-125 -51 -66 -99 -128 -106 -137 -7 -9 -18 -25 -24 -36 -6 -11 -17 -26 -24
-34 -39 -41 -225 -332 -357 -558 -84 -145 -252 -464 -237 -450 3 3 44 61 92
129 48 69 92 129 97 135 5 6 34 45 65 86 62 82 243 312 252 320 3 3 28 32 56
65 27 33 52 62 55 65 3 3 39 43 80 90 147 167 391 417 526 537 38 34 85 76
104 93 19 18 69 60 110 93 41 34 77 64 80 67 7 7 68 54 185 142 601 452 1268
751 1970 883 64 12 233 36 285 41 30 3 66 7 79 9 141 23 760 23 876 0 11 -2
52 -7 91 -10 39 -3 81 -8 93 -10 101 -19 609 -27 806 -13 246 19 488 56 710
108 50 12 97 23 105 25 8 1 74 20 145 40 287 82 582 198 870 341 161 80 201
102 376 201 336 191 798 535 1144 852 73 68 425 419 480 481 168 186 401 470
531 645 32 44 63 84 67 90 135 173 341 493 519 804 91 160 299 568 339 666 9
22 37 90 62 150 77 185 118 293 169 450 54 165 102 335 96 340 -2 2 -14 -24
-27 -58z"/>
<path d="M1344 7778 c-508 -510 -838 -848 -866 -888 -98 -142 -166 -297 -194
-445 -2 -11 -8 -42 -13 -70 -12 -60 -12 -281 -1 -333 5 -20 11 -55 14 -76 20
-125 113 -331 207 -456 50 -66 803 -830 818 -830 6 0 176 342 211 425 12 27
28 63 35 80 84 183 193 500 310 900 69 236 191 852 220 1115 4 30 8 66 10 80
2 14 6 50 10 80 3 30 8 71 10 90 2 19 7 67 10 105 4 39 8 81 10 95 4 30 15
186 20 285 7 125 17 665 13 665 -2 0 -373 -370 -824 -822z"/>
<path d="M11520 8184 c-14 -9 -38 -34 -54 -56 -16 -23 -50 -67 -75 -99 -25
-32 -57 -73 -71 -90 -31 -41 -162 -202 -170 -209 -45 -41 -132 -160 -148 -202
-24 -66 -28 -247 -7 -289 28 -52 20 -52 804 -52 401 0 734 3 740 7 6 4 11 16
11 27 0 23 -928 955 -966 969 -32 13 -34 12 -64 -6z"/>
<path d="M10552 7067 c-36 -15 -124 -82 -280 -212 -125 -104 -229 -192 -232
-195 -3 -3 -43 -35 -90 -70 -47 -36 -90 -69 -96 -75 -6 -5 -23 -19 -38 -30
-15 -11 -53 -40 -84 -64 -32 -24 -122 -87 -202 -139 -80 -53 -154 -107 -165
-121 -37 -45 -42 -81 -42 -271 0 -197 6 -228 50 -252 34 -19 1419 -19 1458 0
55 27 54 14 53 718 -1 357 -2 654 -3 661 0 6 -12 25 -26 42 l-26 30 -112 0
c-93 0 -122 -4 -165 -22z"/>
<path d="M11033 7078 c-51 -25 -51 -24 -51 -723 1 -681 0 -680 44 -716 14 -12
157 -14 923 -14 522 -1 918 3 934 8 15 5 39 24 53 43 23 30 25 39 19 96 -3 35
-8 70 -10 78 -2 8 -7 39 -10 69 -4 30 -8 62 -10 71 -2 9 -6 39 -9 66 -4 27 -9
65 -11 84 -3 19 -7 55 -10 80 -4 25 -15 106 -25 180 -10 74 -21 158 -25 185
-3 28 -8 57 -10 65 -2 8 -6 42 -10 75 -3 33 -8 67 -10 75 -2 8 -6 42 -10 75
-5 56 -37 136 -69 178 -8 10 -28 22 -47 27 -47 14 -1628 12 -1656 -2z"/>
<path d="M9079 6014 c-287 -150 -499 -248 -679 -315 -155 -58 -159 -60 -137
-68 9 -3 213 -6 454 -5 405 0 440 1 465 18 38 25 44 59 42 221 -2 159 -1 156
-12 173 -17 25 -51 19 -133 -24z"/>
<path d="M7880 5523 c-75 -10 -248 -56 -267 -71 -49 -38 -50 -41 -48 -752 1
-628 2 -667 19 -693 10 -15 30 -30 45 -34 14 -4 362 -7 772 -8 596 0 751 3
770 13 55 29 53 1 54 761 0 521 -3 711 -12 732 -24 59 -11 57 -688 56 -341 0
-631 -3 -645 -4z"/>
<path d="M9358 5500 l-33 -28 -1 -708 c-2 -781 -3 -764 58 -788 26 -10 182
-12 733 -11 661 1 702 2 728 19 15 10 30 32 35 48 4 16 7 343 7 727 0 654 -1
699 -18 725 -10 15 -28 31 -40 35 -12 5 -340 9 -729 9 l-706 0 -34 -28z"/>
<path d="M11045 5520 c-11 -4 -29 -18 -40 -30 -20 -22 -20 -38 -22 -724 -1
-430 2 -713 8 -732 19 -61 36 -67 172 -68 105 0 129 4 173 23 43 19 165 137
782 755 403 403 732 737 732 742 -1 40 24 39 -902 40 -486 1 -892 -2 -903 -6z"/>
<path d="M5255 5423 c-133 -12 -356 -44 -470 -67 -392 -79 -396 -80 -424 -139
-18 -40 -19 -66 -19 -614 l1 -572 27 -33 27 -32 658 -1 c420 0 668 3 688 10
66 21 64 2 63 737 -1 709 0 699 -50 712 -19 5 -443 4 -501 -1z"/>
<path d="M7340 5420 c-192 -28 -398 -38 -785 -39 -267 0 -372 3 -430 13 -16 2
-62 7 -101 11 -61 5 -74 3 -95 -14 l-24 -19 0 -669 c1 -628 2 -670 19 -695 10
-15 28 -31 39 -35 35 -11 1404 -10 1441 2 66 21 64 3 64 738 0 408 -4 671 -10
689 -11 31 -18 32 -118 18z"/>
<path d="M3959 5116 c-466 -195 -640 -291 -939 -514 -171 -128 -432 -338 -624
-502 -62 -53 -106 -98 -106 -109 0 -6 10 -15 23 -19 12 -5 436 -8 942 -8 902
1 921 2 947 21 15 11 31 31 36 45 6 19 9 1040 3 1122 -2 26 -30 48 -59 47 -15
0 -115 -37 -223 -83z"/>
<path d="M2145 3860 c-8 -13 53 -75 821 -844 637 -637 767 -763 812 -783 48
-22 65 -25 190 -25 218 0 208 -1 244 31 l33 29 0 757 c0 562 -3 765 -12 785
-25 60 25 58 -1076 57 -554 0 -1010 -3 -1012 -7z"/>
<path d="M4405 3860 c-11 -4 -29 -18 -40 -30 -20 -22 -20 -37 -22 -779 -1
-814 -2 -805 50 -832 29 -16 1317 -16 1355 0 62 26 59 -8 59 823 l0 757 -27
33 -28 33 -663 1 c-365 1 -673 -2 -684 -6z"/>
<path d="M5958 3856 c-55 -27 -53 -8 -53 -826 1 -822 -2 -787 57 -811 20 -8
224 -11 732 -11 781 0 743 -3 765 65 6 21 9 305 8 784 l-2 753 -28 27 -27 28
-714 1 c-520 1 -721 -1 -738 -10z"/>
<path d="M7631 3861 c-13 -4 -34 -19 -45 -34 -21 -28 -21 -33 -21 -786 0 -825
-2 -797 56 -821 42 -18 1506 -18 1548 0 58 23 56 1 56 823 0 747 0 756 -21
783 -11 16 -32 31 -45 35 -32 8 -1495 8 -1528 0z"/>
<path d="M9385 3860 c-11 -4 -29 -18 -40 -30 -20 -22 -20 -37 -22 -774 -1
-460 2 -763 8 -783 14 -44 50 -64 115 -64 65 0 108 8 149 28 17 8 301 286 633
617 454 452 610 613 629 651 23 44 26 63 28 162 1 71 -3 124 -11 142 -25 60
-3 59 -769 59 -385 -1 -709 -4 -720 -8z"/>
<path d="M11018 3841 c-31 -28 -44 -85 -33 -148 10 -55 31 -49 117 34 44 43
84 85 88 94 17 30 -6 44 -76 45 -59 1 -70 -2 -96 -25z"/>
<path d="M3933 2103 c-7 -2 -13 -12 -13 -22 0 -16 248 -274 281 -291 33 -18
42 4 44 117 3 186 -12 203 -184 202 -64 0 -122 -3 -128 -6z"/>
<path d="M4394 2099 c-46 -23 -52 -52 -50 -239 1 -150 4 -181 21 -218 15 -31
156 -180 520 -544 275 -275 516 -508 535 -518 52 -26 91 -32 211 -32 121 1
151 12 168 67 12 38 11 1400 -1 1436 -5 14 -22 33 -37 42 -27 16 -85 17 -688
16 -421 0 -665 -4 -679 -10z"/>
<path d="M5938 2081 l-33 -29 0 -715 c0 -778 -2 -753 57 -778 43 -18 1420 -17
1454 1 53 29 52 17 51 783 l-2 709 -33 29 -32 29 -715 0 -715 0 -32 -29z"/>
<path d="M7598 2081 l-33 -29 0 -706 c0 -388 3 -718 7 -733 12 -48 55 -64 166
-65 114 -1 153 6 207 37 22 13 311 295 641 627 663 665 638 635 638 763 0 70
-19 110 -60 125 -15 6 -324 10 -779 10 l-755 0 -32 -29z"/>
<path d="M9369 2104 c-8 -3 -23 -18 -32 -34 -20 -33 -14 -80 10 -80 23 0 95
77 91 97 -3 18 -36 26 -69 17z"/>
<path d="M5587 443 c-18 -17 0 -46 76 -122 46 -46 91 -88 101 -93 29 -16 40 6
42 84 2 69 1 73 -31 105 -31 31 -37 33 -107 33 -41 0 -78 -3 -81 -7z"/>
<path d="M5938 421 l-31 -28 -2 -110 c-1 -133 5 -161 47 -202 l33 -32 694 6
c771 7 730 3 769 74 16 29 19 55 19 141 0 117 -6 139 -47 163 -25 15 -94 17
-739 17 l-711 0 -32 -29z"/>
<path d="M7599 422 c-32 -29 -37 -53 -30 -159 2 -47 43 -28 129 61 45 46 82
88 82 93 0 22 -28 33 -87 33 -55 0 -67 -4 -94 -28z"/>
</g>
</svg>
