<?xml version="1.0" standalone="no"?>
<!DOCTYPE svg PUBLIC "-//W3C//DTD SVG 20010904//EN"
 "http://www.w3.org/TR/2001/REC-SVG-20010904/DTD/svg10.dtd">
<svg version="1.0" xmlns="http://www.w3.org/2000/svg"
 width="546.000000pt" height="546.000000pt" viewBox="0 0 546.000000 546.000000"
 preserveAspectRatio="xMidYMid meet">
<metadata>
Created by potrace 1.14, written by Peter Selinger 2001-2017
</metadata>
<g transform="translate(0.000000,546.000000) scale(0.100000,-0.100000)"
fill="#000000" stroke="none">
<path d="M3096 5025 c-3 -16 -8 -39 -10 -50 -2 -11 -18 -90 -35 -175 -16 -85
-33 -168 -36 -185 -5 -28 -8 -46 -19 -103 -3 -13 -7 -31 -10 -40 -3 -9 -7 -33
-10 -52 -3 -19 -8 -46 -11 -60 -13 -65 -127 -638 -131 -660 -2 -14 -9 -47 -14
-75 -6 -27 -12 -59 -14 -70 -2 -11 -7 -33 -11 -49 -7 -25 -5 -27 11 -22 38 11
111 25 191 36 86 11 318 15 366 5 33 -6 33 -6 11 106 -9 46 -18 91 -19 99 -1
8 -7 40 -13 70 -6 30 -14 69 -17 85 -3 17 -7 41 -10 55 -3 14 -8 39 -10 55 -3
17 -8 37 -10 45 -2 8 -7 33 -10 55 -12 68 -13 78 -30 159 -16 84 -22 113 -30
161 -3 17 -10 53 -15 80 -21 106 -49 252 -56 290 -33 193 -51 268 -58 240z"/>
<path d="M4278 4703 c-41 -59 -124 -180 -183 -268 -60 -88 -141 -207 -180
-265 -39 -58 -125 -184 -190 -280 -65 -96 -146 -215 -180 -265 -34 -49 -65
-95 -68 -101 -5 -8 26 -19 91 -34 130 -30 247 -72 365 -131 53 -27 99 -49 101
-49 3 0 22 78 31 131 3 13 18 85 34 159 16 74 32 146 35 160 8 41 66 313 73
340 3 14 8 33 10 44 2 10 19 90 38 176 19 87 37 170 40 184 11 55 15 75 40
185 14 62 24 115 21 118 -2 2 -37 -44 -78 -104z"/>
<path d="M1865 4710 c7 -28 13 -53 13 -55 1 -8 11 -60 32 -160 11 -49 22 -101
24 -115 6 -33 46 -225 56 -270 11 -52 61 -291 67 -320 2 -14 13 -65 24 -115
24 -105 85 -404 94 -455 3 -19 8 -36 9 -38 2 -1 16 8 32 21 90 76 306 191 446
238 l66 22 -212 316 c-117 174 -313 466 -435 649 -122 182 -223 332 -225 332
-2 0 2 -23 9 -50z"/>
<path d="M5385 4097 c-28 -18 -126 -81 -220 -142 -168 -108 -339 -218 -465
-300 -130 -84 -549 -354 -578 -372 -23 -14 -22 -15 43 -62 125 -92 234 -195
355 -341 19 -23 21 -24 33 -7 7 10 184 262 395 560 211 298 391 553 400 567 9
14 34 49 54 78 21 28 37 52 36 52 -2 0 -26 -15 -53 -33z"/>
<path d="M910 3879 c50 -74 237 -343 415 -599 178 -256 338 -487 357 -513 69
-100 58 -98 109 -21 78 121 148 207 250 306 l99 97 -52 34 c-48 31 -378 247
-823 539 -234 153 -418 273 -433 282 -8 5 27 -52 78 -125z"/>
<path d="M5199 3428 c-4 -64 -3 -1702 2 -1709 4 -8 144 -14 232 -10 l27 1 0
865 0 865 -130 0 c-97 0 -130 -3 -131 -12z"/>
<path d="M3167 3284 c-1 -1 -38 -4 -83 -8 -461 -35 -885 -306 -1127 -718 -99
-168 -153 -321 -194 -548 -10 -51 -9 -376 0 -440 39 -268 172 -562 340 -755
l34 -39 36 33 35 34 -52 66 c-157 198 -268 453 -292 674 -3 29 -8 59 -10 67
-7 19 -5 254 2 300 14 94 27 160 40 210 135 490 518 869 994 985 207 50 405
50 602 0 282 -71 570 -264 760 -509 l48 -61 55 0 c30 0 55 4 55 9 0 21 -143
195 -222 271 -157 151 -267 226 -478 323 -45 20 -188 65 -245 76 -16 4 -41 9
-55 11 -41 8 -237 24 -243 19z"/>
<path d="M2630 2878 c-141 -265 -160 -301 -160 -302 0 -1 150 -1 333 -1 l332
0 108 213 107 212 -327 0 -328 0 -65 -122z"/>
<path d="M3452 2928 c-103 -188 -182 -338 -182 -346 0 -4 149 -7 330 -7 l330
0 51 100 c78 153 80 133 -19 208 -155 117 -154 117 -324 117 l-147 0 -39 -72z"/>
<path d="M2479 2933 c-61 -40 -159 -121 -204 -169 -63 -66 -155 -176 -155
-186 0 -2 50 -3 111 -3 l111 0 99 194 c54 107 97 196 96 198 -2 1 -28 -14 -58
-34z"/>
<path d="M177 2913 c-8 -7 -24 3 638 -413 308 -194 595 -375 638 -401 51 -33
79 -45 81 -37 2 7 11 51 21 97 29 144 71 270 140 415 15 32 25 59 24 60 -4 3
-284 54 -609 111 -19 3 -93 17 -165 30 -71 13 -143 26 -160 29 -16 2 -40 7
-51 10 -12 2 -39 7 -60 10 -95 15 -477 87 -484 91 -4 2 -10 2 -13 -2z"/>
<path d="M4097 2651 c-20 -37 -37 -70 -37 -73 0 -4 188 -3 199 1 7 2 -109 141
-119 141 -3 0 -22 -31 -43 -69z"/>
<path d="M2050 2460 c-30 -19 -150 -346 -150 -408 0 -10 20 -12 81 -10 l81 3
104 200 c57 110 103 205 104 210 0 11 -204 15 -220 5z"/>
<path d="M2401 2460 c-4 -3 -44 -75 -90 -160 -45 -85 -86 -162 -91 -170 -5 -8
-18 -32 -29 -52 l-21 -38 343 0 342 0 104 204 c57 113 102 208 100 213 -4 9
-645 12 -658 3z"/>
<path d="M3195 2455 c-7 -5 -48 -75 -90 -155 -43 -80 -91 -169 -106 -198 -16
-29 -29 -55 -29 -58 0 -2 154 -3 341 -2 l341 3 104 205 c57 113 103 207 104
210 0 10 -652 5 -665 -5z"/>
<path d="M3961 2415 c-16 -27 -52 -95 -81 -150 -29 -55 -68 -128 -87 -162
l-35 -63 344 0 343 0 103 205 c56 112 102 208 102 212 0 5 -149 8 -331 8
l-330 0 -28 -50z"/>
<path d="M1340 1959 c-186 -43 -467 -108 -520 -119 -19 -4 -118 -26 -220 -50
-102 -23 -214 -48 -250 -56 -36 -8 -72 -17 -80 -19 -8 -1 -67 -15 -130 -30
-63 -15 -121 -27 -127 -28 -7 0 -13 -3 -13 -7 0 -4 51 -15 113 -25 61 -10 119
-19 127 -20 8 -2 76 -13 150 -24 74 -12 146 -24 160 -26 14 -2 79 -13 145 -24
66 -11 138 -22 160 -26 22 -3 47 -7 55 -10 8 -2 33 -6 55 -9 22 -2 51 -7 65
-10 14 -3 43 -8 65 -11 22 -3 96 -14 165 -26 166 -26 176 -28 239 -39 30 -6
56 -8 58 -6 2 2 -3 44 -11 92 -8 49 -18 112 -21 139 -8 59 -8 308 0 348 7 33
19 34 -185 -14z"/>
<path d="M2129 1932 c-18 -2 -31 -14 -47 -45 -12 -23 -41 -78 -65 -122 -101
-186 -116 -218 -115 -241 l2 -24 336 0 335 0 106 210 c59 116 104 212 100 214
-3 2 -134 4 -291 5 -157 1 -297 3 -310 4 -14 1 -37 1 -51 -1z"/>
<path d="M2901 1926 c-9 -11 -171 -307 -210 -383 l-21 -43 350 0 349 0 105
207 c57 114 103 210 101 214 -3 3 -141 7 -307 8 -167 1 -315 3 -330 5 -16 2
-32 -2 -37 -8z"/>
<path d="M3714 1933 c-12 -2 -30 -20 -41 -41 -11 -20 -55 -102 -98 -182 -42
-80 -86 -160 -97 -177 l-20 -33 354 0 353 1 103 207 c57 114 103 210 103 213
-1 3 -141 7 -313 8 -171 1 -314 3 -317 5 -3 1 -15 0 -27 -1z"/>
<path d="M1879 1887 c-1 -53 -1 -135 0 -167 1 -18 17 7 56 83 30 60 55 112 55
115 0 4 -25 8 -55 9 l-55 2 -1 -42z"/>
<path d="M1940 1378 c0 -44 102 -258 168 -356 l39 -57 86 0 86 -1 105 207 c58
114 106 210 106 213 0 3 -133 6 -295 6 -229 0 -295 -3 -295 -12z"/>
<path d="M2585 1312 c-23 -42 -73 -138 -112 -212 l-72 -135 355 0 356 0 109
213 109 212 -353 0 -352 0 -40 -78z"/>
<path d="M3417 1383 c-3 -5 -23 -42 -45 -83 -22 -41 -70 -131 -106 -199 -37
-68 -64 -126 -61 -130 4 -3 162 -6 352 -6 336 0 346 0 358 20 15 24 205 396
205 401 0 8 -699 4 -703 -3z"/>
<path d="M1490 1266 c-130 -96 -235 -172 -615 -445 -490 -352 -573 -414 -550
-408 40 12 151 39 170 43 11 2 49 11 84 20 36 9 72 17 80 19 9 2 126 31 261
64 135 34 254 63 265 66 11 2 146 35 300 73 154 39 295 73 313 77 17 4 32 11
32 15 0 5 -20 40 -44 77 -60 94 -117 210 -160 328 -20 55 -40 108 -44 117 -6
14 -20 7 -92 -46z"/>
<path d="M5202 1175 c-9 -14 -9 -37 0 -56 6 -14 27 -17 133 -17 l125 0 0 39
c0 30 -4 39 -17 40 -112 5 -236 2 -241 -6z"/>
</g>
</svg>
